<?xml version="1.0" encoding="UTF-8" standalone="no"?>
<!DOCTYPE svg PUBLIC "-//W3C//DTD SVG 1.1//EN"
 "http://www.w3.org/Graphics/SVG/1.1/DTD/svg11.dtd">
<!-- Generated by graphviz version 2.43.0 (0)
 -->
<!-- Title: G Pages: 1 -->
<svg width="642pt" height="260pt"
 viewBox="0.00 0.00 642.00 260.00" xmlns="http://www.w3.org/2000/svg" xmlns:xlink="http://www.w3.org/1999/xlink">
<g id="graph0" class="graph" transform="scale(1 1) rotate(0) translate(4 256)">
<title>G</title>
<polygon fill="white" stroke="transparent" points="-4,4 -4,-256 638,-256 638,4 -4,4"/>
<!-- aws_internet_gateway.igw -->
<g id="node1" class="node">
<title>aws_internet_gateway.igw</title>
<polygon fill="none" stroke="black" points="316.5,-252 142.5,-252 142.5,-216 316.5,-216 316.5,-252"/>
<text text-anchor="middle" x="229.5" y="-230.3" font-family="sans-serif" font-size="14.00">aws_internet_gateway.igw</text>
</g>
<!-- aws_vpc.main -->
<g id="node9" class="node">
<title>aws_vpc.main</title>
<polygon fill="none" stroke="black" points="103,-171 0,-171 0,-135 103,-135 103,-171"/>
<text text-anchor="middle" x="51.5" y="-149.3" font-family="sans-serif" font-size="14.00">aws_vpc.main</text>
</g>
<!-- aws_internet_gateway.igw&#45;&gt;aws_vpc.main -->
<g id="edge1" class="edge">
<title>aws_internet_gateway.igw&#45;&gt;aws_vpc.main</title>
<path fill="none" stroke="black" d="M161.31,-215.86C153.68,-213.18 146.1,-210.22 139,-207 120.8,-198.75 101.84,-187.28 86.32,-177.03"/>
<polygon fill="black" stroke="black" points="87.87,-173.85 77.62,-171.18 83.96,-179.66 87.87,-173.85"/>
</g>
<!-- aws_route.public_route -->
<g id="node2" class="node">
<title>aws_route.public_route</title>
<polygon fill="none" stroke="black" points="573,-238 417,-238 417,-202 573,-202 573,-238"/>
<text text-anchor="middle" x="495" y="-216.3" font-family="sans-serif" font-size="14.00">aws_route.public_route</text>
</g>
<!-- aws_route.public_route&#45;&gt;aws_internet_gateway.igw -->
<g id="edge2" class="edge">
<title>aws_route.public_route&#45;&gt;aws_internet_gateway.igw</title>
<path fill="none" stroke="black" d="M416.72,-224.11C388.6,-225.6 356.47,-227.31 326.89,-228.88"/>
<polygon fill="black" stroke="black" points="326.35,-225.4 316.55,-229.43 326.72,-232.39 326.35,-225.4"/>
</g>
<!-- aws_route_table.public_rt -->
<g id="node4" class="node">
<title>aws_route_table.public_rt</title>
<polygon fill="none" stroke="black" points="314.5,-198 144.5,-198 144.5,-162 314.5,-162 314.5,-198"/>
<text text-anchor="middle" x="229.5" y="-176.3" font-family="sans-serif" font-size="14.00">aws_route_table.public_rt</text>
</g>
<!-- aws_route.public_route&#45;&gt;aws_route_table.public_rt -->
<g id="edge3" class="edge">
<title>aws_route.public_route&#45;&gt;aws_route_table.public_rt</title>
<path fill="none" stroke="black" d="M416.72,-208.27C387.93,-203.9 354.93,-198.89 324.79,-194.31"/>
<polygon fill="black" stroke="black" points="325.1,-190.82 314.69,-192.78 324.05,-197.74 325.1,-190.82"/>
</g>
<!-- aws_route_table.private_rt -->
<g id="node3" class="node">
<title>aws_route_table.private_rt</title>
<polygon fill="none" stroke="black" points="317.5,-90 141.5,-90 141.5,-54 317.5,-54 317.5,-90"/>
<text text-anchor="middle" x="229.5" y="-68.3" font-family="sans-serif" font-size="14.00">aws_route_table.private_rt</text>
</g>
<!-- aws_route_table.public_rt&#45;&gt;aws_vpc.main -->
<g id="edge4" class="edge">
<title>aws_route_table.public_rt&#45;&gt;aws_vpc.main</title>
<path fill="none" stroke="black" d="M144.37,-167.09C133.76,-165.47 123.08,-163.83 112.94,-162.27"/>
<polygon fill="black" stroke="black" points="113.42,-158.81 103.01,-160.75 112.36,-165.72 113.42,-158.81"/>
</g>
<!-- aws_route_table_association.private_assoc -->
<g id="node5" class="node">
<title>aws_route_table_association.private_assoc</title>
<polygon fill="none" stroke="black" points="634,-63 356,-63 356,-27 634,-27 634,-63"/>
<text text-anchor="middle" x="495" y="-41.3" font-family="sans-serif" font-size="14.00">aws_route_table_association.private_assoc</text>
</g>
<!-- aws_route_table_association.private_assoc&#45;&gt;aws_route_table.private_rt -->
<g id="edge5" class="edge">
<title>aws_route_table_association.private_assoc&#45;&gt;aws_route_table.private_rt</title>
<path fill="none" stroke="black" d="M355.69,-59.17C346.3,-60.13 336.96,-61.09 327.85,-62.02"/>
<polygon fill="black" stroke="black" points="327.27,-58.57 317.68,-63.07 327.98,-65.53 327.27,-58.57"/>
</g>
<!-- aws_subnet.private_subnet -->
<g id="node7" class="node">
<title>aws_subnet.private_subnet</title>
<polygon fill="none" stroke="black" points="320,-36 139,-36 139,0 320,0 320,-36"/>
<text text-anchor="middle" x="229.5" y="-14.3" font-family="sans-serif" font-size="14.00">aws_subnet.private_subnet</text>
</g>
<!-- aws_route_table_association.private_assoc&#45;&gt;aws_subnet.private_subnet -->
<g id="edge6" class="edge">
<title>aws_route_table_association.private_assoc&#45;&gt;aws_subnet.private_subnet</title>
<path fill="none" stroke="black" d="M355.69,-30.83C347.12,-29.95 338.59,-29.08 330.24,-28.22"/>
<polygon fill="black" stroke="black" points="330.46,-24.72 320.16,-27.19 329.75,-31.69 330.46,-24.72"/>
</g>
<!-- aws_route_table_association.public_assoc -->
<g id="node6" class="node">
<title>aws_route_table_association.public_assoc</title>
<polygon fill="none" stroke="black" points="631,-171 359,-171 359,-135 631,-135 631,-171"/>
<text text-anchor="middle" x="495" y="-149.3" font-family="sans-serif" font-size="14.00">aws_route_table_association.public_assoc</text>
</g>
<!-- aws_route_table_association.public_assoc&#45;&gt;aws_route_table.public_rt -->
<g id="edge7" class="edge">
<title>aws_route_table_association.public_assoc&#45;&gt;aws_route_table.public_rt</title>
<path fill="none" stroke="black" d="M358.78,-166.86C347.26,-168.04 335.79,-169.21 324.7,-170.35"/>
<polygon fill="black" stroke="black" points="324.22,-166.88 314.63,-171.38 324.94,-173.84 324.22,-166.88"/>
</g>
<!-- aws_subnet.public_subnet -->
<g id="node8" class="node">
<title>aws_subnet.public_subnet</title>
<polygon fill="none" stroke="black" points="317.5,-144 141.5,-144 141.5,-108 317.5,-108 317.5,-144"/>
<text text-anchor="middle" x="229.5" y="-122.3" font-family="sans-serif" font-size="14.00">aws_subnet.public_subnet</text>
</g>
<!-- aws_route_table_association.public_assoc&#45;&gt;aws_subnet.public_subnet -->
<g id="edge8" class="edge">
<title>aws_route_table_association.public_assoc&#45;&gt;aws_subnet.public_subnet</title>
<path fill="none" stroke="black" d="M358.78,-139.14C348.35,-138.08 337.96,-137.01 327.85,-135.98"/>
<polygon fill="black" stroke="black" points="328.16,-132.49 317.85,-134.95 327.44,-139.45 328.16,-132.49"/>
</g>
<!-- aws_subnet.private_subnet&#45;&gt;aws_vpc.main -->
<g id="edge9" class="edge">
<title>aws_subnet.private_subnet&#45;&gt;aws_vpc.main</title>
<path fill="none" stroke="black" d="M154.99,-36.09C149.38,-38.68 143.98,-41.64 139,-45 107.94,-65.99 82.6,-101.52 67.55,-126.07"/>
<polygon fill="black" stroke="black" points="64.41,-124.5 62.3,-134.89 70.43,-128.09 64.41,-124.5"/>
</g>
<!-- aws_subnet.public_subnet&#45;&gt;aws_vpc.main -->
<g id="edge10" class="edge">
<title>aws_subnet.public_subnet&#45;&gt;aws_vpc.main</title>
<path fill="none" stroke="black" d="M141.27,-139.38C131.85,-140.83 122.42,-142.27 113.41,-143.66"/>
<polygon fill="black" stroke="black" points="112.79,-140.21 103.44,-145.19 113.85,-147.13 112.79,-140.21"/>
</g>
</g>
</svg>
